<mxfile host="app.diagrams.net" modified="2023-10-20T03:37:02.557Z" agent="Mozilla/5.0 (Windows NT 10.0; Win64; x64) AppleWebKit/537.36 (KHTML, like Gecko) Chrome/118.0.0.0 Safari/537.36" etag="gvrN6_JJP6iazLAygCK0" version="21.6.8" type="device">
  <diagram name="PÃ¡gina-1" id="Hw9tokAyGQSd18kC5vwE">
    <mxGraphModel dx="724" dy="422" grid="1" gridSize="10" guides="1" tooltips="1" connect="1" arrows="1" fold="1" page="1" pageScale="1" pageWidth="827" pageHeight="1169" math="0" shadow="0">
      <root>
        <mxCell id="0" />
        <mxCell id="1" parent="0" />
        <mxCell id="j14xiAJslkJ-AgJIVaB_-1" value="Ecommerce Microservice" style="rounded=0;whiteSpace=wrap;html=1;" vertex="1" parent="1">
          <mxGeometry x="430" y="200" width="120" height="60" as="geometry" />
        </mxCell>
        <mxCell id="j14xiAJslkJ-AgJIVaB_-2" value="Gateway Microservice" style="rounded=0;whiteSpace=wrap;html=1;" vertex="1" parent="1">
          <mxGeometry x="690" y="200" width="120" height="60" as="geometry" />
        </mxCell>
        <mxCell id="j14xiAJslkJ-AgJIVaB_-3" value="DB" style="shape=cylinder3;whiteSpace=wrap;html=1;boundedLbl=1;backgroundOutline=1;size=15;" vertex="1" parent="1">
          <mxGeometry x="600" y="20" width="60" height="80" as="geometry" />
        </mxCell>
        <mxCell id="j14xiAJslkJ-AgJIVaB_-5" value="Client" style="ellipse;whiteSpace=wrap;html=1;aspect=fixed;" vertex="1" parent="1">
          <mxGeometry x="210" y="190" width="80" height="80" as="geometry" />
        </mxCell>
        <mxCell id="j14xiAJslkJ-AgJIVaB_-6" value="" style="endArrow=classic;html=1;rounded=0;exitX=1;exitY=0.5;exitDx=0;exitDy=0;entryX=0;entryY=0.5;entryDx=0;entryDy=0;" edge="1" parent="1" source="j14xiAJslkJ-AgJIVaB_-5" target="j14xiAJslkJ-AgJIVaB_-1">
          <mxGeometry width="50" height="50" relative="1" as="geometry">
            <mxPoint x="400" y="320" as="sourcePoint" />
            <mxPoint x="450" y="270" as="targetPoint" />
          </mxGeometry>
        </mxCell>
        <mxCell id="j14xiAJslkJ-AgJIVaB_-11" value="User info" style="edgeLabel;html=1;align=center;verticalAlign=middle;resizable=0;points=[];" vertex="1" connectable="0" parent="j14xiAJslkJ-AgJIVaB_-6">
          <mxGeometry x="-0.103" y="-1" relative="1" as="geometry">
            <mxPoint as="offset" />
          </mxGeometry>
        </mxCell>
        <mxCell id="j14xiAJslkJ-AgJIVaB_-8" value="" style="endArrow=classic;html=1;rounded=0;exitX=1;exitY=0.25;exitDx=0;exitDy=0;entryX=0;entryY=0.25;entryDx=0;entryDy=0;" edge="1" parent="1">
          <mxGeometry width="50" height="50" relative="1" as="geometry">
            <mxPoint x="550" y="229.5" as="sourcePoint" />
            <mxPoint x="690" y="229.5" as="targetPoint" />
          </mxGeometry>
        </mxCell>
        <mxCell id="j14xiAJslkJ-AgJIVaB_-9" value="2# gRPC call Create" style="edgeLabel;html=1;align=center;verticalAlign=middle;resizable=0;points=[];" vertex="1" connectable="0" parent="j14xiAJslkJ-AgJIVaB_-8">
          <mxGeometry x="-0.2042" y="-2" relative="1" as="geometry">
            <mxPoint as="offset" />
          </mxGeometry>
        </mxCell>
        <mxCell id="j14xiAJslkJ-AgJIVaB_-13" value="" style="endArrow=classic;html=1;rounded=0;exitX=0.5;exitY=0;exitDx=0;exitDy=0;" edge="1" parent="1" source="j14xiAJslkJ-AgJIVaB_-1" target="j14xiAJslkJ-AgJIVaB_-3">
          <mxGeometry width="50" height="50" relative="1" as="geometry">
            <mxPoint x="350" y="170" as="sourcePoint" />
            <mxPoint x="400" y="120" as="targetPoint" />
          </mxGeometry>
        </mxCell>
        <mxCell id="j14xiAJslkJ-AgJIVaB_-14" value="#1 Insert user data" style="edgeLabel;html=1;align=center;verticalAlign=middle;resizable=0;points=[];" vertex="1" connectable="0" parent="j14xiAJslkJ-AgJIVaB_-13">
          <mxGeometry x="-0.0063" y="3" relative="1" as="geometry">
            <mxPoint as="offset" />
          </mxGeometry>
        </mxCell>
        <mxCell id="j14xiAJslkJ-AgJIVaB_-16" value="" style="endArrow=classic;html=1;rounded=0;exitX=0.5;exitY=0;exitDx=0;exitDy=0;" edge="1" parent="1" source="j14xiAJslkJ-AgJIVaB_-2" target="j14xiAJslkJ-AgJIVaB_-3">
          <mxGeometry width="50" height="50" relative="1" as="geometry">
            <mxPoint x="460" y="170" as="sourcePoint" />
            <mxPoint x="510" y="120" as="targetPoint" />
          </mxGeometry>
        </mxCell>
        <mxCell id="j14xiAJslkJ-AgJIVaB_-17" value="#3 insert wallet data" style="edgeLabel;html=1;align=center;verticalAlign=middle;resizable=0;points=[];" vertex="1" connectable="0" parent="j14xiAJslkJ-AgJIVaB_-16">
          <mxGeometry x="0.0338" y="-3" relative="1" as="geometry">
            <mxPoint y="-1" as="offset" />
          </mxGeometry>
        </mxCell>
        <mxCell id="j14xiAJslkJ-AgJIVaB_-20" value="Ecommerce Microservice" style="rounded=0;whiteSpace=wrap;html=1;" vertex="1" parent="1">
          <mxGeometry x="410" y="520" width="120" height="60" as="geometry" />
        </mxCell>
        <mxCell id="j14xiAJslkJ-AgJIVaB_-21" value="Gateway Microservice" style="rounded=0;whiteSpace=wrap;html=1;" vertex="1" parent="1">
          <mxGeometry x="670" y="520" width="120" height="60" as="geometry" />
        </mxCell>
        <mxCell id="j14xiAJslkJ-AgJIVaB_-22" value="DB" style="shape=cylinder3;whiteSpace=wrap;html=1;boundedLbl=1;backgroundOutline=1;size=15;" vertex="1" parent="1">
          <mxGeometry x="580" y="340" width="60" height="80" as="geometry" />
        </mxCell>
        <mxCell id="j14xiAJslkJ-AgJIVaB_-23" value="Client" style="ellipse;whiteSpace=wrap;html=1;aspect=fixed;" vertex="1" parent="1">
          <mxGeometry x="190" y="510" width="80" height="80" as="geometry" />
        </mxCell>
        <mxCell id="j14xiAJslkJ-AgJIVaB_-24" value="" style="endArrow=classic;html=1;rounded=0;exitX=1;exitY=0.5;exitDx=0;exitDy=0;entryX=0;entryY=0.5;entryDx=0;entryDy=0;" edge="1" parent="1" source="j14xiAJslkJ-AgJIVaB_-23" target="j14xiAJslkJ-AgJIVaB_-20">
          <mxGeometry width="50" height="50" relative="1" as="geometry">
            <mxPoint x="380" y="640" as="sourcePoint" />
            <mxPoint x="430" y="590" as="targetPoint" />
          </mxGeometry>
        </mxCell>
        <mxCell id="j14xiAJslkJ-AgJIVaB_-25" value="Transfer info" style="edgeLabel;html=1;align=center;verticalAlign=middle;resizable=0;points=[];" vertex="1" connectable="0" parent="j14xiAJslkJ-AgJIVaB_-24">
          <mxGeometry x="-0.103" y="-1" relative="1" as="geometry">
            <mxPoint as="offset" />
          </mxGeometry>
        </mxCell>
        <mxCell id="j14xiAJslkJ-AgJIVaB_-26" value="" style="endArrow=classic;html=1;rounded=0;exitX=1;exitY=0.25;exitDx=0;exitDy=0;entryX=0;entryY=0.25;entryDx=0;entryDy=0;" edge="1" parent="1">
          <mxGeometry width="50" height="50" relative="1" as="geometry">
            <mxPoint x="530" y="549.5" as="sourcePoint" />
            <mxPoint x="670" y="549.5" as="targetPoint" />
          </mxGeometry>
        </mxCell>
        <mxCell id="j14xiAJslkJ-AgJIVaB_-27" value="2# gRPC call &lt;br&gt;TransferMoney" style="edgeLabel;html=1;align=center;verticalAlign=middle;resizable=0;points=[];" vertex="1" connectable="0" parent="j14xiAJslkJ-AgJIVaB_-26">
          <mxGeometry x="-0.2042" y="-2" relative="1" as="geometry">
            <mxPoint as="offset" />
          </mxGeometry>
        </mxCell>
        <mxCell id="j14xiAJslkJ-AgJIVaB_-31" value="" style="endArrow=classic;html=1;rounded=0;exitX=0.5;exitY=0;exitDx=0;exitDy=0;" edge="1" parent="1" source="j14xiAJslkJ-AgJIVaB_-21" target="j14xiAJslkJ-AgJIVaB_-22">
          <mxGeometry width="50" height="50" relative="1" as="geometry">
            <mxPoint x="440" y="490" as="sourcePoint" />
            <mxPoint x="490" y="440" as="targetPoint" />
          </mxGeometry>
        </mxCell>
        <mxCell id="j14xiAJslkJ-AgJIVaB_-32" value="#3 Update payer wallet&lt;br&gt;and recipient wallet balances" style="edgeLabel;html=1;align=center;verticalAlign=middle;resizable=0;points=[];" vertex="1" connectable="0" parent="j14xiAJslkJ-AgJIVaB_-31">
          <mxGeometry x="0.0338" y="-3" relative="1" as="geometry">
            <mxPoint y="-1" as="offset" />
          </mxGeometry>
        </mxCell>
        <mxCell id="j14xiAJslkJ-AgJIVaB_-33" value="" style="endArrow=classic;startArrow=classic;html=1;rounded=0;entryX=0;entryY=1;entryDx=0;entryDy=-15;entryPerimeter=0;exitX=0.5;exitY=0;exitDx=0;exitDy=0;" edge="1" parent="1" source="j14xiAJslkJ-AgJIVaB_-20" target="j14xiAJslkJ-AgJIVaB_-22">
          <mxGeometry width="50" height="50" relative="1" as="geometry">
            <mxPoint x="470" y="470" as="sourcePoint" />
            <mxPoint x="520" y="420" as="targetPoint" />
          </mxGeometry>
        </mxCell>
        <mxCell id="j14xiAJslkJ-AgJIVaB_-34" value="1# Get payer and&amp;nbsp;&lt;br&gt;recipient user data" style="edgeLabel;html=1;align=center;verticalAlign=middle;resizable=0;points=[];" vertex="1" connectable="0" parent="j14xiAJslkJ-AgJIVaB_-33">
          <mxGeometry x="-0.0277" y="1" relative="1" as="geometry">
            <mxPoint as="offset" />
          </mxGeometry>
        </mxCell>
        <mxCell id="j14xiAJslkJ-AgJIVaB_-38" value="Create user request" style="rounded=1;whiteSpace=wrap;html=1;" vertex="1" parent="1">
          <mxGeometry x="200" y="60" width="120" height="60" as="geometry" />
        </mxCell>
        <mxCell id="j14xiAJslkJ-AgJIVaB_-39" value="Transfer money request" style="rounded=1;whiteSpace=wrap;html=1;" vertex="1" parent="1">
          <mxGeometry x="200" y="380" width="120" height="60" as="geometry" />
        </mxCell>
      </root>
    </mxGraphModel>
  </diagram>
</mxfile>
